<mxfile host="Electron" modified="2024-02-12T13:54:21.521Z" agent="Mozilla/5.0 (Windows NT 10.0; Win64; x64) AppleWebKit/537.36 (KHTML, like Gecko) draw.io/23.0.2 Chrome/120.0.6099.109 Electron/28.1.0 Safari/537.36" etag="X9s3ecn426UcRqzzAqCB" version="23.0.2" type="device">
  <diagram id="C5RBs43oDa-KdzZeNtuy" name="Page-1">
    <mxGraphModel dx="1674" dy="844" grid="1" gridSize="10" guides="1" tooltips="1" connect="1" arrows="1" fold="1" page="1" pageScale="1" pageWidth="827" pageHeight="1169" math="0" shadow="0">
      <root>
        <mxCell id="WIyWlLk6GJQsqaUBKTNV-0" />
        <mxCell id="WIyWlLk6GJQsqaUBKTNV-1" parent="WIyWlLk6GJQsqaUBKTNV-0" />
        <mxCell id="AfieeLYYzSvV8Vjg5uAZ-3" style="edgeStyle=orthogonalEdgeStyle;rounded=0;orthogonalLoop=1;jettySize=auto;html=1;entryX=0.5;entryY=0;entryDx=0;entryDy=0;" edge="1" parent="WIyWlLk6GJQsqaUBKTNV-1" source="AfieeLYYzSvV8Vjg5uAZ-0" target="AfieeLYYzSvV8Vjg5uAZ-2">
          <mxGeometry relative="1" as="geometry" />
        </mxCell>
        <mxCell id="AfieeLYYzSvV8Vjg5uAZ-0" value="ADMIN" style="shape=actor;whiteSpace=wrap;html=1;" vertex="1" parent="WIyWlLk6GJQsqaUBKTNV-1">
          <mxGeometry x="364" y="90" width="99" height="120" as="geometry" />
        </mxCell>
        <mxCell id="AfieeLYYzSvV8Vjg5uAZ-5" style="edgeStyle=orthogonalEdgeStyle;rounded=0;orthogonalLoop=1;jettySize=auto;html=1;entryX=0.5;entryY=0;entryDx=0;entryDy=0;" edge="1" parent="WIyWlLk6GJQsqaUBKTNV-1" source="AfieeLYYzSvV8Vjg5uAZ-2" target="AfieeLYYzSvV8Vjg5uAZ-4">
          <mxGeometry relative="1" as="geometry" />
        </mxCell>
        <mxCell id="AfieeLYYzSvV8Vjg5uAZ-7" style="edgeStyle=orthogonalEdgeStyle;rounded=0;orthogonalLoop=1;jettySize=auto;html=1;entryX=0.5;entryY=0;entryDx=0;entryDy=0;" edge="1" parent="WIyWlLk6GJQsqaUBKTNV-1" source="AfieeLYYzSvV8Vjg5uAZ-2" target="AfieeLYYzSvV8Vjg5uAZ-6">
          <mxGeometry relative="1" as="geometry" />
        </mxCell>
        <mxCell id="AfieeLYYzSvV8Vjg5uAZ-9" style="edgeStyle=orthogonalEdgeStyle;rounded=0;orthogonalLoop=1;jettySize=auto;html=1;" edge="1" parent="WIyWlLk6GJQsqaUBKTNV-1" source="AfieeLYYzSvV8Vjg5uAZ-2" target="AfieeLYYzSvV8Vjg5uAZ-8">
          <mxGeometry relative="1" as="geometry" />
        </mxCell>
        <mxCell id="AfieeLYYzSvV8Vjg5uAZ-2" value="Effettua LOGIN" style="rounded=0;whiteSpace=wrap;html=1;" vertex="1" parent="WIyWlLk6GJQsqaUBKTNV-1">
          <mxGeometry x="354" y="270" width="120" height="60" as="geometry" />
        </mxCell>
        <mxCell id="AfieeLYYzSvV8Vjg5uAZ-4" value="Aggiunge Nuova Bicicletta" style="rounded=0;whiteSpace=wrap;html=1;" vertex="1" parent="WIyWlLk6GJQsqaUBKTNV-1">
          <mxGeometry x="120" y="380" width="120" height="60" as="geometry" />
        </mxCell>
        <mxCell id="AfieeLYYzSvV8Vjg5uAZ-6" value="Aggiunge Equipaggiamento" style="rounded=0;whiteSpace=wrap;html=1;" vertex="1" parent="WIyWlLk6GJQsqaUBKTNV-1">
          <mxGeometry x="270" y="380" width="120" height="60" as="geometry" />
        </mxCell>
        <mxCell id="AfieeLYYzSvV8Vjg5uAZ-8" value="Aggiunge / Aggiorna Tariffa" style="rounded=0;whiteSpace=wrap;html=1;" vertex="1" parent="WIyWlLk6GJQsqaUBKTNV-1">
          <mxGeometry x="414" y="380" width="120" height="60" as="geometry" />
        </mxCell>
        <mxCell id="AfieeLYYzSvV8Vjg5uAZ-14" style="edgeStyle=orthogonalEdgeStyle;rounded=0;orthogonalLoop=1;jettySize=auto;html=1;" edge="1" parent="WIyWlLk6GJQsqaUBKTNV-1" source="AfieeLYYzSvV8Vjg5uAZ-10" target="AfieeLYYzSvV8Vjg5uAZ-13">
          <mxGeometry relative="1" as="geometry" />
        </mxCell>
        <mxCell id="AfieeLYYzSvV8Vjg5uAZ-15" style="edgeStyle=orthogonalEdgeStyle;rounded=0;orthogonalLoop=1;jettySize=auto;html=1;entryX=0.5;entryY=0;entryDx=0;entryDy=0;" edge="1" parent="WIyWlLk6GJQsqaUBKTNV-1" source="AfieeLYYzSvV8Vjg5uAZ-10" target="AfieeLYYzSvV8Vjg5uAZ-12">
          <mxGeometry relative="1" as="geometry" />
        </mxCell>
        <mxCell id="AfieeLYYzSvV8Vjg5uAZ-10" value="VIsualizza percentuale utilizzo" style="rounded=0;whiteSpace=wrap;html=1;" vertex="1" parent="WIyWlLk6GJQsqaUBKTNV-1">
          <mxGeometry x="560" y="380" width="120" height="60" as="geometry" />
        </mxCell>
        <mxCell id="AfieeLYYzSvV8Vjg5uAZ-11" style="edgeStyle=orthogonalEdgeStyle;rounded=0;orthogonalLoop=1;jettySize=auto;html=1;entryX=0.558;entryY=0.017;entryDx=0;entryDy=0;entryPerimeter=0;" edge="1" parent="WIyWlLk6GJQsqaUBKTNV-1" source="AfieeLYYzSvV8Vjg5uAZ-2" target="AfieeLYYzSvV8Vjg5uAZ-10">
          <mxGeometry relative="1" as="geometry" />
        </mxCell>
        <mxCell id="AfieeLYYzSvV8Vjg5uAZ-12" value="percentuale&amp;nbsp;&lt;br&gt;singola Bicicletta" style="rounded=0;whiteSpace=wrap;html=1;" vertex="1" parent="WIyWlLk6GJQsqaUBKTNV-1">
          <mxGeometry x="680" y="480" width="120" height="60" as="geometry" />
        </mxCell>
        <mxCell id="AfieeLYYzSvV8Vjg5uAZ-13" value="percentuale Categoria" style="rounded=0;whiteSpace=wrap;html=1;" vertex="1" parent="WIyWlLk6GJQsqaUBKTNV-1">
          <mxGeometry x="550" y="480" width="120" height="60" as="geometry" />
        </mxCell>
      </root>
    </mxGraphModel>
  </diagram>
</mxfile>
